<mxfile host="app.diagrams.net" modified="2023-03-25T09:50:51.169Z" agent="Mozilla/5.0 (Macintosh; Intel Mac OS X 10.15; rv:109.0) Gecko/20100101 Firefox/111.0" etag="UhHoWekXQ_WNZfstJ-E4" version="21.1.1" type="github" pages="3">
  <diagram id="C5RBs43oDa-KdzZeNtuy" name="VM Fault">
    <mxGraphModel dx="900" dy="529" grid="0" gridSize="10" guides="1" tooltips="1" connect="1" arrows="1" fold="1" page="1" pageScale="1" pageWidth="827" pageHeight="1169" math="0" shadow="0">
      <root>
        <mxCell id="WIyWlLk6GJQsqaUBKTNV-0" />
        <mxCell id="WIyWlLk6GJQsqaUBKTNV-1" parent="WIyWlLk6GJQsqaUBKTNV-0" />
        <mxCell id="gjD_-75JLr6LIN9-Wh-N-2" value="" style="edgeStyle=orthogonalEdgeStyle;rounded=0;orthogonalLoop=1;jettySize=auto;html=1;fontSize=18;" parent="WIyWlLk6GJQsqaUBKTNV-1" source="WIyWlLk6GJQsqaUBKTNV-3" target="gjD_-75JLr6LIN9-Wh-N-1" edge="1">
          <mxGeometry relative="1" as="geometry" />
        </mxCell>
        <mxCell id="WIyWlLk6GJQsqaUBKTNV-3" value="&lt;font style=&quot;font-size: 24px;&quot;&gt;Start&lt;/font&gt;" style="rounded=1;whiteSpace=wrap;html=1;fontSize=12;glass=0;strokeWidth=1;shadow=0;" parent="WIyWlLk6GJQsqaUBKTNV-1" vertex="1">
          <mxGeometry x="160" y="22" width="120" height="40" as="geometry" />
        </mxCell>
        <mxCell id="gjD_-75JLr6LIN9-Wh-N-12" value="" style="edgeStyle=orthogonalEdgeStyle;rounded=0;orthogonalLoop=1;jettySize=auto;html=1;fontSize=18;" parent="WIyWlLk6GJQsqaUBKTNV-1" source="gjD_-75JLr6LIN9-Wh-N-1" target="gjD_-75JLr6LIN9-Wh-N-9" edge="1">
          <mxGeometry relative="1" as="geometry" />
        </mxCell>
        <mxCell id="gjD_-75JLr6LIN9-Wh-N-1" value="&lt;div&gt;&lt;font style=&quot;font-size: 14px;&quot;&gt;Exception&lt;/font&gt; &lt;font style=&quot;font-size: 14px;&quot;&gt;&lt;br&gt;&lt;/font&gt;&lt;/div&gt;&lt;div&gt;&lt;font style=&quot;font-size: 14px;&quot;&gt;generation&lt;/font&gt;&lt;/div&gt;" style="rounded=1;whiteSpace=wrap;html=1;fontSize=24;" parent="WIyWlLk6GJQsqaUBKTNV-1" vertex="1">
          <mxGeometry x="150" y="150" width="140" height="60" as="geometry" />
        </mxCell>
        <mxCell id="gjD_-75JLr6LIN9-Wh-N-8" value="" style="edgeStyle=orthogonalEdgeStyle;rounded=0;orthogonalLoop=1;jettySize=auto;html=1;fontSize=18;" parent="WIyWlLk6GJQsqaUBKTNV-1" source="gjD_-75JLr6LIN9-Wh-N-3" target="gjD_-75JLr6LIN9-Wh-N-7" edge="1">
          <mxGeometry relative="1" as="geometry" />
        </mxCell>
        <mxCell id="gjD_-75JLr6LIN9-Wh-N-3" value="&lt;font style=&quot;font-size: 14px;&quot;&gt;Read only&lt;/font&gt;" style="rounded=1;whiteSpace=wrap;html=1;fontSize=18;" parent="WIyWlLk6GJQsqaUBKTNV-1" vertex="1">
          <mxGeometry x="480" y="130" width="120" height="30" as="geometry" />
        </mxCell>
        <mxCell id="gjD_-75JLr6LIN9-Wh-N-16" value="" style="edgeStyle=orthogonalEdgeStyle;rounded=0;orthogonalLoop=1;jettySize=auto;html=1;fontSize=14;" parent="WIyWlLk6GJQsqaUBKTNV-1" source="gjD_-75JLr6LIN9-Wh-N-4" target="gjD_-75JLr6LIN9-Wh-N-15" edge="1">
          <mxGeometry relative="1" as="geometry" />
        </mxCell>
        <mxCell id="gjD_-75JLr6LIN9-Wh-N-4" value="&lt;font style=&quot;font-size: 14px;&quot;&gt;Write/read&lt;/font&gt;" style="rounded=1;whiteSpace=wrap;html=1;fontSize=18;" parent="WIyWlLk6GJQsqaUBKTNV-1" vertex="1">
          <mxGeometry x="480" y="190" width="120" height="30" as="geometry" />
        </mxCell>
        <mxCell id="gjD_-75JLr6LIN9-Wh-N-7" value="&lt;font style=&quot;font-size: 14px;&quot;&gt;Stop process&lt;/font&gt;" style="rounded=1;whiteSpace=wrap;html=1;fontSize=18;fillColor=#f8cecc;strokeColor=#b85450;" parent="WIyWlLk6GJQsqaUBKTNV-1" vertex="1">
          <mxGeometry x="650" y="130" width="120" height="30" as="geometry" />
        </mxCell>
        <mxCell id="gjD_-75JLr6LIN9-Wh-N-10" value="" style="edgeStyle=orthogonalEdgeStyle;rounded=0;orthogonalLoop=1;jettySize=auto;html=1;fontSize=18;" parent="WIyWlLk6GJQsqaUBKTNV-1" source="gjD_-75JLr6LIN9-Wh-N-9" target="gjD_-75JLr6LIN9-Wh-N-4" edge="1">
          <mxGeometry relative="1" as="geometry" />
        </mxCell>
        <mxCell id="gjD_-75JLr6LIN9-Wh-N-11" style="edgeStyle=orthogonalEdgeStyle;rounded=0;orthogonalLoop=1;jettySize=auto;html=1;entryX=0;entryY=0.5;entryDx=0;entryDy=0;fontSize=18;" parent="WIyWlLk6GJQsqaUBKTNV-1" source="gjD_-75JLr6LIN9-Wh-N-9" target="gjD_-75JLr6LIN9-Wh-N-3" edge="1">
          <mxGeometry relative="1" as="geometry" />
        </mxCell>
        <mxCell id="gjD_-75JLr6LIN9-Wh-N-14" value="" style="edgeStyle=orthogonalEdgeStyle;rounded=0;orthogonalLoop=1;jettySize=auto;html=1;fontSize=18;" parent="WIyWlLk6GJQsqaUBKTNV-1" source="gjD_-75JLr6LIN9-Wh-N-9" target="gjD_-75JLr6LIN9-Wh-N-13" edge="1">
          <mxGeometry relative="1" as="geometry">
            <Array as="points">
              <mxPoint x="380" y="65" />
            </Array>
          </mxGeometry>
        </mxCell>
        <mxCell id="gjD_-75JLr6LIN9-Wh-N-9" value="&lt;font style=&quot;font-size: 14px;&quot;&gt;TLB fault&lt;/font&gt;" style="rounded=1;whiteSpace=wrap;html=1;fontSize=18;" parent="WIyWlLk6GJQsqaUBKTNV-1" vertex="1">
          <mxGeometry x="320" y="150" width="120" height="60" as="geometry" />
        </mxCell>
        <mxCell id="gjD_-75JLr6LIN9-Wh-N-13" value="&lt;font style=&quot;font-size: 14px;&quot;&gt;Error messages handling&lt;/font&gt;" style="rounded=1;whiteSpace=wrap;html=1;fontSize=18;" parent="WIyWlLk6GJQsqaUBKTNV-1" vertex="1">
          <mxGeometry x="400" y="30" width="120" height="70" as="geometry" />
        </mxCell>
        <mxCell id="gjD_-75JLr6LIN9-Wh-N-18" value="" style="edgeStyle=orthogonalEdgeStyle;rounded=0;orthogonalLoop=1;jettySize=auto;html=1;fontSize=14;" parent="WIyWlLk6GJQsqaUBKTNV-1" source="gjD_-75JLr6LIN9-Wh-N-15" target="gjD_-75JLr6LIN9-Wh-N-17" edge="1">
          <mxGeometry relative="1" as="geometry" />
        </mxCell>
        <mxCell id="gjD_-75JLr6LIN9-Wh-N-15" value="&lt;font style=&quot;font-size: 14px;&quot;&gt;Page number extraction from faultaddress&lt;/font&gt;" style="rounded=1;whiteSpace=wrap;html=1;fontSize=18;" parent="WIyWlLk6GJQsqaUBKTNV-1" vertex="1">
          <mxGeometry x="480" y="260" width="120" height="70" as="geometry" />
        </mxCell>
        <mxCell id="gjD_-75JLr6LIN9-Wh-N-20" value="" style="edgeStyle=orthogonalEdgeStyle;rounded=0;orthogonalLoop=1;jettySize=auto;html=1;fontSize=14;entryX=0.5;entryY=0;entryDx=0;entryDy=0;" parent="WIyWlLk6GJQsqaUBKTNV-1" source="gjD_-75JLr6LIN9-Wh-N-17" target="gjD_-75JLr6LIN9-Wh-N-23" edge="1">
          <mxGeometry relative="1" as="geometry">
            <mxPoint x="510" y="470" as="targetPoint" />
          </mxGeometry>
        </mxCell>
        <mxCell id="gjD_-75JLr6LIN9-Wh-N-25" style="edgeStyle=orthogonalEdgeStyle;rounded=0;orthogonalLoop=1;jettySize=auto;html=1;entryX=0.5;entryY=0;entryDx=0;entryDy=0;fontSize=14;" parent="WIyWlLk6GJQsqaUBKTNV-1" source="gjD_-75JLr6LIN9-Wh-N-17" target="gjD_-75JLr6LIN9-Wh-N-24" edge="1">
          <mxGeometry relative="1" as="geometry" />
        </mxCell>
        <mxCell id="gjD_-75JLr6LIN9-Wh-N-17" value="&lt;div&gt;Check &lt;br&gt;&lt;/div&gt;&lt;div&gt;from PT&lt;/div&gt;" style="rhombus;whiteSpace=wrap;html=1;fontSize=14;fillColor=#f8cecc;strokeColor=#b85450;" parent="WIyWlLk6GJQsqaUBKTNV-1" vertex="1">
          <mxGeometry x="491.25" y="360" width="97.5" height="80" as="geometry" />
        </mxCell>
        <mxCell id="gjD_-75JLr6LIN9-Wh-N-21" value="yes" style="text;html=1;strokeColor=none;fillColor=none;align=center;verticalAlign=middle;whiteSpace=wrap;rounded=0;fontSize=14;" parent="WIyWlLk6GJQsqaUBKTNV-1" vertex="1">
          <mxGeometry x="550" y="440" width="30" height="20" as="geometry" />
        </mxCell>
        <mxCell id="gjD_-75JLr6LIN9-Wh-N-22" value="no" style="text;html=1;strokeColor=none;fillColor=none;align=center;verticalAlign=middle;whiteSpace=wrap;rounded=0;fontSize=14;" parent="WIyWlLk6GJQsqaUBKTNV-1" vertex="1">
          <mxGeometry x="455" y="380" width="30" height="20" as="geometry" />
        </mxCell>
        <mxCell id="gjD_-75JLr6LIN9-Wh-N-28" value="" style="edgeStyle=orthogonalEdgeStyle;rounded=0;orthogonalLoop=1;jettySize=auto;html=1;fontSize=14;" parent="WIyWlLk6GJQsqaUBKTNV-1" source="gjD_-75JLr6LIN9-Wh-N-23" target="gjD_-75JLr6LIN9-Wh-N-27" edge="1">
          <mxGeometry relative="1" as="geometry" />
        </mxCell>
        <mxCell id="gjD_-75JLr6LIN9-Wh-N-32" value="" style="edgeStyle=orthogonalEdgeStyle;rounded=0;orthogonalLoop=1;jettySize=auto;html=1;fontSize=14;" parent="WIyWlLk6GJQsqaUBKTNV-1" source="gjD_-75JLr6LIN9-Wh-N-23" target="gjD_-75JLr6LIN9-Wh-N-30" edge="1">
          <mxGeometry relative="1" as="geometry" />
        </mxCell>
        <mxCell id="gjD_-75JLr6LIN9-Wh-N-23" value="&lt;font style=&quot;font-size: 14px;&quot;&gt;Check faultaddress in SwapFile&lt;/font&gt;" style="rhombus;whiteSpace=wrap;html=1;fontSize=14;fillColor=#f8cecc;strokeColor=#b85450;" parent="WIyWlLk6GJQsqaUBKTNV-1" vertex="1">
          <mxGeometry x="481.25" y="470" width="117.5" height="90" as="geometry" />
        </mxCell>
        <mxCell id="gjD_-75JLr6LIN9-Wh-N-97" style="edgeStyle=orthogonalEdgeStyle;rounded=0;orthogonalLoop=1;jettySize=auto;html=1;entryX=0;entryY=0.5;entryDx=0;entryDy=0;fontSize=14;" parent="WIyWlLk6GJQsqaUBKTNV-1" source="gjD_-75JLr6LIN9-Wh-N-24" target="gjD_-75JLr6LIN9-Wh-N-94" edge="1">
          <mxGeometry relative="1" as="geometry" />
        </mxCell>
        <mxCell id="gjD_-75JLr6LIN9-Wh-N-24" value="TLB update" style="rounded=1;whiteSpace=wrap;html=1;fontSize=14;fillColor=#f8cecc;strokeColor=#b85450;" parent="WIyWlLk6GJQsqaUBKTNV-1" vertex="1">
          <mxGeometry x="36.25" y="420" width="110" height="40" as="geometry" />
        </mxCell>
        <mxCell id="gjD_-75JLr6LIN9-Wh-N-37" style="edgeStyle=orthogonalEdgeStyle;rounded=0;orthogonalLoop=1;jettySize=auto;html=1;entryX=1;entryY=0.5;entryDx=0;entryDy=0;fontSize=14;" parent="WIyWlLk6GJQsqaUBKTNV-1" source="gjD_-75JLr6LIN9-Wh-N-27" target="gjD_-75JLr6LIN9-Wh-N-30" edge="1">
          <mxGeometry relative="1" as="geometry">
            <Array as="points">
              <mxPoint x="715" y="620" />
            </Array>
          </mxGeometry>
        </mxCell>
        <mxCell id="gjD_-75JLr6LIN9-Wh-N-27" value="Load_from_elf =1" style="rounded=1;whiteSpace=wrap;html=1;fontSize=14;" parent="WIyWlLk6GJQsqaUBKTNV-1" vertex="1">
          <mxGeometry x="650" y="497.5" width="130" height="35" as="geometry" />
        </mxCell>
        <mxCell id="gjD_-75JLr6LIN9-Wh-N-29" value="no" style="text;html=1;strokeColor=none;fillColor=none;align=center;verticalAlign=middle;whiteSpace=wrap;rounded=0;fontSize=14;" parent="WIyWlLk6GJQsqaUBKTNV-1" vertex="1">
          <mxGeometry x="595" y="490" width="30" height="20" as="geometry" />
        </mxCell>
        <mxCell id="gjD_-75JLr6LIN9-Wh-N-36" value="" style="edgeStyle=orthogonalEdgeStyle;rounded=0;orthogonalLoop=1;jettySize=auto;html=1;fontSize=14;" parent="WIyWlLk6GJQsqaUBKTNV-1" source="gjD_-75JLr6LIN9-Wh-N-30" target="gjD_-75JLr6LIN9-Wh-N-34" edge="1">
          <mxGeometry relative="1" as="geometry" />
        </mxCell>
        <mxCell id="gjD_-75JLr6LIN9-Wh-N-30" value="POP from FreeFrameList" style="rounded=1;whiteSpace=wrap;html=1;fontSize=14;fillColor=#f8cecc;strokeColor=#b85450;" parent="WIyWlLk6GJQsqaUBKTNV-1" vertex="1">
          <mxGeometry x="485" y="600" width="110" height="40" as="geometry" />
        </mxCell>
        <mxCell id="gjD_-75JLr6LIN9-Wh-N-33" value="yes" style="text;html=1;strokeColor=none;fillColor=none;align=center;verticalAlign=middle;whiteSpace=wrap;rounded=0;fontSize=14;" parent="WIyWlLk6GJQsqaUBKTNV-1" vertex="1">
          <mxGeometry x="550" y="565" width="30" height="20" as="geometry" />
        </mxCell>
        <mxCell id="gjD_-75JLr6LIN9-Wh-N-40" style="edgeStyle=orthogonalEdgeStyle;rounded=0;orthogonalLoop=1;jettySize=auto;html=1;entryX=0.5;entryY=0;entryDx=0;entryDy=0;fontSize=14;" parent="WIyWlLk6GJQsqaUBKTNV-1" source="gjD_-75JLr6LIN9-Wh-N-34" target="gjD_-75JLr6LIN9-Wh-N-39" edge="1">
          <mxGeometry relative="1" as="geometry" />
        </mxCell>
        <mxCell id="gjD_-75JLr6LIN9-Wh-N-43" style="edgeStyle=orthogonalEdgeStyle;rounded=0;orthogonalLoop=1;jettySize=auto;html=1;fontSize=14;entryX=0.5;entryY=0;entryDx=0;entryDy=0;" parent="WIyWlLk6GJQsqaUBKTNV-1" source="gjD_-75JLr6LIN9-Wh-N-34" target="gjD_-75JLr6LIN9-Wh-N-42" edge="1">
          <mxGeometry relative="1" as="geometry">
            <mxPoint x="620" y="710" as="targetPoint" />
          </mxGeometry>
        </mxCell>
        <mxCell id="gjD_-75JLr6LIN9-Wh-N-34" value="&lt;div&gt;&lt;br&gt;&lt;/div&gt;&lt;div&gt;FreeFrameList empty&lt;/div&gt;" style="rhombus;whiteSpace=wrap;html=1;fontSize=14;" parent="WIyWlLk6GJQsqaUBKTNV-1" vertex="1">
          <mxGeometry x="290" y="690" width="120" height="80" as="geometry" />
        </mxCell>
        <mxCell id="gjD_-75JLr6LIN9-Wh-N-54" value="" style="edgeStyle=orthogonalEdgeStyle;rounded=0;orthogonalLoop=1;jettySize=auto;html=1;fontSize=14;" parent="WIyWlLk6GJQsqaUBKTNV-1" source="gjD_-75JLr6LIN9-Wh-N-39" target="gjD_-75JLr6LIN9-Wh-N-53" edge="1">
          <mxGeometry relative="1" as="geometry" />
        </mxCell>
        <mxCell id="gjD_-75JLr6LIN9-Wh-N-39" value="Swap Out" style="rounded=1;whiteSpace=wrap;html=1;fontSize=14;fillColor=#f8cecc;strokeColor=#b85450;" parent="WIyWlLk6GJQsqaUBKTNV-1" vertex="1">
          <mxGeometry x="150" y="750" width="110" height="40" as="geometry" />
        </mxCell>
        <mxCell id="gjD_-75JLr6LIN9-Wh-N-41" value="yes" style="text;html=1;strokeColor=none;fillColor=none;align=center;verticalAlign=middle;whiteSpace=wrap;rounded=0;fontSize=14;" parent="WIyWlLk6GJQsqaUBKTNV-1" vertex="1">
          <mxGeometry x="240" y="710" width="30" height="20" as="geometry" />
        </mxCell>
        <mxCell id="gjD_-75JLr6LIN9-Wh-N-47" value="" style="edgeStyle=orthogonalEdgeStyle;rounded=0;orthogonalLoop=1;jettySize=auto;html=1;fontSize=14;" parent="WIyWlLk6GJQsqaUBKTNV-1" source="gjD_-75JLr6LIN9-Wh-N-42" target="gjD_-75JLr6LIN9-Wh-N-46" edge="1">
          <mxGeometry relative="1" as="geometry" />
        </mxCell>
        <mxCell id="gjD_-75JLr6LIN9-Wh-N-42" value="&lt;div&gt;TLB update&lt;/div&gt;&lt;div&gt;Entry_valid update&lt;br&gt;&lt;/div&gt;" style="rounded=1;whiteSpace=wrap;html=1;fontSize=14;" parent="WIyWlLk6GJQsqaUBKTNV-1" vertex="1">
          <mxGeometry x="450" y="750" width="150" height="40" as="geometry" />
        </mxCell>
        <mxCell id="gjD_-75JLr6LIN9-Wh-N-44" value="no" style="text;html=1;strokeColor=none;fillColor=none;align=center;verticalAlign=middle;whiteSpace=wrap;rounded=0;fontSize=14;" parent="WIyWlLk6GJQsqaUBKTNV-1" vertex="1">
          <mxGeometry x="420" y="710" width="30" height="20" as="geometry" />
        </mxCell>
        <mxCell id="gjD_-75JLr6LIN9-Wh-N-52" style="edgeStyle=orthogonalEdgeStyle;rounded=0;orthogonalLoop=1;jettySize=auto;html=1;entryX=1;entryY=0.5;entryDx=0;entryDy=0;fontSize=14;" parent="WIyWlLk6GJQsqaUBKTNV-1" source="gjD_-75JLr6LIN9-Wh-N-45" target="gjD_-75JLr6LIN9-Wh-N-49" edge="1">
          <mxGeometry relative="1" as="geometry">
            <Array as="points">
              <mxPoint x="675" y="960" />
            </Array>
          </mxGeometry>
        </mxCell>
        <mxCell id="gjD_-75JLr6LIN9-Wh-N-45" value="RR Algorithm" style="rounded=1;whiteSpace=wrap;html=1;fontSize=14;fillColor=#f8cecc;strokeColor=#b85450;" parent="WIyWlLk6GJQsqaUBKTNV-1" vertex="1">
          <mxGeometry x="620" y="890" width="110" height="40" as="geometry" />
        </mxCell>
        <mxCell id="gjD_-75JLr6LIN9-Wh-N-48" style="edgeStyle=orthogonalEdgeStyle;rounded=0;orthogonalLoop=1;jettySize=auto;html=1;entryX=0.5;entryY=0;entryDx=0;entryDy=0;fontSize=14;" parent="WIyWlLk6GJQsqaUBKTNV-1" source="gjD_-75JLr6LIN9-Wh-N-46" target="gjD_-75JLr6LIN9-Wh-N-45" edge="1">
          <mxGeometry relative="1" as="geometry" />
        </mxCell>
        <mxCell id="gjD_-75JLr6LIN9-Wh-N-51" value="" style="edgeStyle=orthogonalEdgeStyle;rounded=0;orthogonalLoop=1;jettySize=auto;html=1;fontSize=14;" parent="WIyWlLk6GJQsqaUBKTNV-1" source="gjD_-75JLr6LIN9-Wh-N-46" target="gjD_-75JLr6LIN9-Wh-N-49" edge="1">
          <mxGeometry relative="1" as="geometry" />
        </mxCell>
        <mxCell id="gjD_-75JLr6LIN9-Wh-N-46" value="Full TLB" style="rhombus;whiteSpace=wrap;html=1;fontSize=14;" parent="WIyWlLk6GJQsqaUBKTNV-1" vertex="1">
          <mxGeometry x="466.25" y="820" width="117.5" height="70" as="geometry" />
        </mxCell>
        <mxCell id="gjD_-75JLr6LIN9-Wh-N-68" value="" style="edgeStyle=orthogonalEdgeStyle;rounded=0;orthogonalLoop=1;jettySize=auto;html=1;fontSize=14;" parent="WIyWlLk6GJQsqaUBKTNV-1" source="gjD_-75JLr6LIN9-Wh-N-49" target="gjD_-75JLr6LIN9-Wh-N-67" edge="1">
          <mxGeometry relative="1" as="geometry">
            <Array as="points">
              <mxPoint x="525" y="1020" />
              <mxPoint x="675" y="1020" />
            </Array>
          </mxGeometry>
        </mxCell>
        <mxCell id="gjD_-75JLr6LIN9-Wh-N-49" value="Entry loading in TLB" style="rounded=1;whiteSpace=wrap;html=1;fontSize=14;fillColor=#f8cecc;strokeColor=#b85450;" parent="WIyWlLk6GJQsqaUBKTNV-1" vertex="1">
          <mxGeometry x="470" y="940" width="110" height="40" as="geometry" />
        </mxCell>
        <mxCell id="gjD_-75JLr6LIN9-Wh-N-57" value="" style="edgeStyle=orthogonalEdgeStyle;rounded=0;orthogonalLoop=1;jettySize=auto;html=1;fontSize=14;" parent="WIyWlLk6GJQsqaUBKTNV-1" source="gjD_-75JLr6LIN9-Wh-N-53" target="gjD_-75JLr6LIN9-Wh-N-56" edge="1">
          <mxGeometry relative="1" as="geometry" />
        </mxCell>
        <mxCell id="gjD_-75JLr6LIN9-Wh-N-53" value="&lt;div&gt;TLB update&lt;/div&gt;&lt;div&gt;Entry_valid update&lt;br&gt;&lt;/div&gt;" style="rounded=1;whiteSpace=wrap;html=1;fontSize=14;fillColor=#f8cecc;strokeColor=#b85450;" parent="WIyWlLk6GJQsqaUBKTNV-1" vertex="1">
          <mxGeometry x="130" y="820" width="150" height="40" as="geometry" />
        </mxCell>
        <mxCell id="gjD_-75JLr6LIN9-Wh-N-60" style="edgeStyle=orthogonalEdgeStyle;rounded=0;orthogonalLoop=1;jettySize=auto;html=1;entryX=0.5;entryY=0;entryDx=0;entryDy=0;fontSize=14;" parent="WIyWlLk6GJQsqaUBKTNV-1" source="gjD_-75JLr6LIN9-Wh-N-56" target="gjD_-75JLr6LIN9-Wh-N-59" edge="1">
          <mxGeometry relative="1" as="geometry" />
        </mxCell>
        <mxCell id="gjD_-75JLr6LIN9-Wh-N-62" value="" style="edgeStyle=orthogonalEdgeStyle;rounded=0;orthogonalLoop=1;jettySize=auto;html=1;fontSize=14;" parent="WIyWlLk6GJQsqaUBKTNV-1" source="gjD_-75JLr6LIN9-Wh-N-56" target="gjD_-75JLr6LIN9-Wh-N-61" edge="1">
          <mxGeometry relative="1" as="geometry" />
        </mxCell>
        <mxCell id="gjD_-75JLr6LIN9-Wh-N-56" value="Full TLB" style="rhombus;whiteSpace=wrap;html=1;fontSize=14;" parent="WIyWlLk6GJQsqaUBKTNV-1" vertex="1">
          <mxGeometry x="146.25" y="900" width="117.5" height="70" as="geometry" />
        </mxCell>
        <mxCell id="gjD_-75JLr6LIN9-Wh-N-65" style="edgeStyle=orthogonalEdgeStyle;rounded=0;orthogonalLoop=1;jettySize=auto;html=1;entryX=1;entryY=0.5;entryDx=0;entryDy=0;fontSize=14;" parent="WIyWlLk6GJQsqaUBKTNV-1" source="gjD_-75JLr6LIN9-Wh-N-59" target="gjD_-75JLr6LIN9-Wh-N-61" edge="1">
          <mxGeometry relative="1" as="geometry">
            <Array as="points">
              <mxPoint x="350" y="1030" />
            </Array>
          </mxGeometry>
        </mxCell>
        <mxCell id="gjD_-75JLr6LIN9-Wh-N-59" value="RR Algorithm" style="rounded=1;whiteSpace=wrap;html=1;fontSize=14;" parent="WIyWlLk6GJQsqaUBKTNV-1" vertex="1">
          <mxGeometry x="295" y="960" width="110" height="40" as="geometry" />
        </mxCell>
        <mxCell id="gjD_-75JLr6LIN9-Wh-N-83" value="" style="edgeStyle=orthogonalEdgeStyle;rounded=0;orthogonalLoop=1;jettySize=auto;html=1;fontSize=14;" parent="WIyWlLk6GJQsqaUBKTNV-1" source="gjD_-75JLr6LIN9-Wh-N-61" target="gjD_-75JLr6LIN9-Wh-N-82" edge="1">
          <mxGeometry relative="1" as="geometry" />
        </mxCell>
        <mxCell id="gjD_-75JLr6LIN9-Wh-N-61" value="Entry loading in TLB" style="rounded=1;whiteSpace=wrap;html=1;fontSize=14;" parent="WIyWlLk6GJQsqaUBKTNV-1" vertex="1">
          <mxGeometry x="150" y="1010" width="110" height="40" as="geometry" />
        </mxCell>
        <mxCell id="gjD_-75JLr6LIN9-Wh-N-70" style="edgeStyle=orthogonalEdgeStyle;rounded=0;orthogonalLoop=1;jettySize=auto;html=1;entryX=0.5;entryY=0;entryDx=0;entryDy=0;fontSize=14;" parent="WIyWlLk6GJQsqaUBKTNV-1" source="gjD_-75JLr6LIN9-Wh-N-67" target="gjD_-75JLr6LIN9-Wh-N-69" edge="1">
          <mxGeometry relative="1" as="geometry" />
        </mxCell>
        <mxCell id="gjD_-75JLr6LIN9-Wh-N-75" style="edgeStyle=orthogonalEdgeStyle;rounded=0;orthogonalLoop=1;jettySize=auto;html=1;exitX=0;exitY=0.5;exitDx=0;exitDy=0;fontSize=14;" parent="WIyWlLk6GJQsqaUBKTNV-1" source="gjD_-75JLr6LIN9-Wh-N-67" target="gjD_-75JLr6LIN9-Wh-N-72" edge="1">
          <mxGeometry relative="1" as="geometry">
            <Array as="points">
              <mxPoint x="536" y="1085" />
            </Array>
          </mxGeometry>
        </mxCell>
        <mxCell id="gjD_-75JLr6LIN9-Wh-N-67" value="Load_from_elf" style="rhombus;whiteSpace=wrap;html=1;fontSize=14;" parent="WIyWlLk6GJQsqaUBKTNV-1" vertex="1">
          <mxGeometry x="616.25" y="1050" width="117.5" height="70" as="geometry" />
        </mxCell>
        <mxCell id="gjD_-75JLr6LIN9-Wh-N-85" value="" style="edgeStyle=orthogonalEdgeStyle;rounded=0;orthogonalLoop=1;jettySize=auto;html=1;fontSize=14;" parent="WIyWlLk6GJQsqaUBKTNV-1" source="gjD_-75JLr6LIN9-Wh-N-69" target="gjD_-75JLr6LIN9-Wh-N-84" edge="1">
          <mxGeometry relative="1" as="geometry" />
        </mxCell>
        <mxCell id="gjD_-75JLr6LIN9-Wh-N-69" value="Loading frame from ELF" style="rounded=1;whiteSpace=wrap;html=1;fontSize=14;fillColor=#f8cecc;strokeColor=#b85450;" parent="WIyWlLk6GJQsqaUBKTNV-1" vertex="1">
          <mxGeometry x="760" y="1110" width="110" height="40" as="geometry" />
        </mxCell>
        <mxCell id="gjD_-75JLr6LIN9-Wh-N-71" value="no" style="text;html=1;strokeColor=none;fillColor=none;align=center;verticalAlign=middle;whiteSpace=wrap;rounded=0;fontSize=14;" parent="WIyWlLk6GJQsqaUBKTNV-1" vertex="1">
          <mxGeometry x="595" y="1060" width="30" height="20" as="geometry" />
        </mxCell>
        <mxCell id="gjD_-75JLr6LIN9-Wh-N-72" value="Set offset and faultaddress to Swap In" style="rounded=1;whiteSpace=wrap;html=1;fontSize=14;fillColor=#f8cecc;strokeColor=#b85450;" parent="WIyWlLk6GJQsqaUBKTNV-1" vertex="1">
          <mxGeometry x="480" y="1110" width="108.75" height="60" as="geometry" />
        </mxCell>
        <mxCell id="gjD_-75JLr6LIN9-Wh-N-76" value="yes" style="text;html=1;strokeColor=none;fillColor=none;align=center;verticalAlign=middle;whiteSpace=wrap;rounded=0;fontSize=14;" parent="WIyWlLk6GJQsqaUBKTNV-1" vertex="1">
          <mxGeometry x="733.75" y="1060" width="30" height="20" as="geometry" />
        </mxCell>
        <mxCell id="gjD_-75JLr6LIN9-Wh-N-77" value="yes" style="text;html=1;strokeColor=none;fillColor=none;align=center;verticalAlign=middle;whiteSpace=wrap;rounded=0;fontSize=14;" parent="WIyWlLk6GJQsqaUBKTNV-1" vertex="1">
          <mxGeometry x="583.75" y="830" width="30" height="20" as="geometry" />
        </mxCell>
        <mxCell id="gjD_-75JLr6LIN9-Wh-N-79" value="yes" style="text;html=1;strokeColor=none;fillColor=none;align=center;verticalAlign=middle;whiteSpace=wrap;rounded=0;fontSize=14;" parent="WIyWlLk6GJQsqaUBKTNV-1" vertex="1">
          <mxGeometry x="270" y="910" width="30" height="20" as="geometry" />
        </mxCell>
        <mxCell id="gjD_-75JLr6LIN9-Wh-N-80" value="no" style="text;html=1;strokeColor=none;fillColor=none;align=center;verticalAlign=middle;whiteSpace=wrap;rounded=0;fontSize=14;" parent="WIyWlLk6GJQsqaUBKTNV-1" vertex="1">
          <mxGeometry x="180" y="970" width="30" height="20" as="geometry" />
        </mxCell>
        <mxCell id="gjD_-75JLr6LIN9-Wh-N-81" value="no" style="text;html=1;strokeColor=none;fillColor=none;align=center;verticalAlign=middle;whiteSpace=wrap;rounded=0;fontSize=14;" parent="WIyWlLk6GJQsqaUBKTNV-1" vertex="1">
          <mxGeometry x="500" y="890" width="30" height="20" as="geometry" />
        </mxCell>
        <mxCell id="gjD_-75JLr6LIN9-Wh-N-87" value="" style="edgeStyle=orthogonalEdgeStyle;rounded=0;orthogonalLoop=1;jettySize=auto;html=1;fontSize=14;" parent="WIyWlLk6GJQsqaUBKTNV-1" source="gjD_-75JLr6LIN9-Wh-N-82" target="gjD_-75JLr6LIN9-Wh-N-86" edge="1">
          <mxGeometry relative="1" as="geometry" />
        </mxCell>
        <mxCell id="gjD_-75JLr6LIN9-Wh-N-82" value="Clean of frame content in memory" style="rounded=1;whiteSpace=wrap;html=1;fontSize=14;fillColor=#f8cecc;strokeColor=#b85450;" parent="WIyWlLk6GJQsqaUBKTNV-1" vertex="1">
          <mxGeometry x="130" y="1100" width="150" height="40" as="geometry" />
        </mxCell>
        <mxCell id="gjD_-75JLr6LIN9-Wh-N-84" value="Variables handling" style="rounded=1;whiteSpace=wrap;html=1;fontSize=14;" parent="WIyWlLk6GJQsqaUBKTNV-1" vertex="1">
          <mxGeometry x="910" y="1105" width="100" height="50" as="geometry" />
        </mxCell>
        <mxCell id="gjD_-75JLr6LIN9-Wh-N-89" style="edgeStyle=orthogonalEdgeStyle;rounded=0;orthogonalLoop=1;jettySize=auto;html=1;entryX=0.5;entryY=0;entryDx=0;entryDy=0;fontSize=14;" parent="WIyWlLk6GJQsqaUBKTNV-1" source="gjD_-75JLr6LIN9-Wh-N-86" target="gjD_-75JLr6LIN9-Wh-N-88" edge="1">
          <mxGeometry relative="1" as="geometry" />
        </mxCell>
        <mxCell id="gjD_-75JLr6LIN9-Wh-N-92" value="" style="edgeStyle=orthogonalEdgeStyle;rounded=0;orthogonalLoop=1;jettySize=auto;html=1;fontSize=14;" parent="WIyWlLk6GJQsqaUBKTNV-1" source="gjD_-75JLr6LIN9-Wh-N-86" target="gjD_-75JLr6LIN9-Wh-N-91" edge="1">
          <mxGeometry relative="1" as="geometry" />
        </mxCell>
        <mxCell id="gjD_-75JLr6LIN9-Wh-N-86" value="Load_from_elf" style="rhombus;whiteSpace=wrap;html=1;fontSize=14;" parent="WIyWlLk6GJQsqaUBKTNV-1" vertex="1">
          <mxGeometry x="146.25" y="1180" width="117.5" height="70" as="geometry" />
        </mxCell>
        <mxCell id="gjD_-75JLr6LIN9-Wh-N-96" style="edgeStyle=orthogonalEdgeStyle;rounded=0;orthogonalLoop=1;jettySize=auto;html=1;entryX=1;entryY=0.5;entryDx=0;entryDy=0;fontSize=14;" parent="WIyWlLk6GJQsqaUBKTNV-1" source="gjD_-75JLr6LIN9-Wh-N-88" target="gjD_-75JLr6LIN9-Wh-N-94" edge="1">
          <mxGeometry relative="1" as="geometry">
            <Array as="points">
              <mxPoint x="355" y="1390" />
            </Array>
          </mxGeometry>
        </mxCell>
        <mxCell id="gjD_-75JLr6LIN9-Wh-N-88" value="Loading frame from ELF" style="rounded=1;whiteSpace=wrap;html=1;fontSize=14;" parent="WIyWlLk6GJQsqaUBKTNV-1" vertex="1">
          <mxGeometry x="300" y="1240" width="110" height="40" as="geometry" />
        </mxCell>
        <mxCell id="gjD_-75JLr6LIN9-Wh-N-90" value="yes" style="text;html=1;strokeColor=none;fillColor=none;align=center;verticalAlign=middle;whiteSpace=wrap;rounded=0;fontSize=14;" parent="WIyWlLk6GJQsqaUBKTNV-1" vertex="1">
          <mxGeometry x="270" y="1190" width="30" height="20" as="geometry" />
        </mxCell>
        <mxCell id="gjD_-75JLr6LIN9-Wh-N-95" value="" style="edgeStyle=orthogonalEdgeStyle;rounded=0;orthogonalLoop=1;jettySize=auto;html=1;fontSize=14;" parent="WIyWlLk6GJQsqaUBKTNV-1" source="gjD_-75JLr6LIN9-Wh-N-91" target="gjD_-75JLr6LIN9-Wh-N-94" edge="1">
          <mxGeometry relative="1" as="geometry" />
        </mxCell>
        <mxCell id="gjD_-75JLr6LIN9-Wh-N-91" value="Swap In" style="rounded=1;whiteSpace=wrap;html=1;fontSize=14;fillColor=#f8cecc;strokeColor=#b85450;" parent="WIyWlLk6GJQsqaUBKTNV-1" vertex="1">
          <mxGeometry x="155" y="1290" width="100" height="30" as="geometry" />
        </mxCell>
        <mxCell id="gjD_-75JLr6LIN9-Wh-N-94" value="Return to the current instruction" style="rounded=1;whiteSpace=wrap;html=1;fontSize=14;" parent="WIyWlLk6GJQsqaUBKTNV-1" vertex="1">
          <mxGeometry x="130" y="1370" width="150" height="40" as="geometry" />
        </mxCell>
        <mxCell id="gjD_-75JLr6LIN9-Wh-N-100" value="" style="endArrow=classic;html=1;rounded=0;fontSize=14;exitX=0.5;exitY=1;exitDx=0;exitDy=0;" parent="WIyWlLk6GJQsqaUBKTNV-1" source="gjD_-75JLr6LIN9-Wh-N-72" edge="1">
          <mxGeometry width="50" height="50" relative="1" as="geometry">
            <mxPoint x="560" y="1200" as="sourcePoint" />
            <mxPoint x="390" y="1390" as="targetPoint" />
            <Array as="points">
              <mxPoint x="534" y="1390" />
              <mxPoint x="390" y="1390" />
            </Array>
          </mxGeometry>
        </mxCell>
        <mxCell id="gjD_-75JLr6LIN9-Wh-N-101" value="" style="endArrow=classic;html=1;rounded=0;fontSize=14;exitX=0.5;exitY=1;exitDx=0;exitDy=0;" parent="WIyWlLk6GJQsqaUBKTNV-1" edge="1">
          <mxGeometry width="50" height="50" relative="1" as="geometry">
            <mxPoint x="814" y="1150" as="sourcePoint" />
            <mxPoint x="530" y="1390" as="targetPoint" />
            <Array as="points">
              <mxPoint x="814" y="1390" />
              <mxPoint x="720" y="1390" />
            </Array>
          </mxGeometry>
        </mxCell>
        <mxCell id="gjD_-75JLr6LIN9-Wh-N-102" value="" style="endArrow=classic;html=1;rounded=0;fontSize=14;exitX=0.5;exitY=1;exitDx=0;exitDy=0;" parent="WIyWlLk6GJQsqaUBKTNV-1" source="gjD_-75JLr6LIN9-Wh-N-72" edge="1">
          <mxGeometry width="50" height="50" relative="1" as="geometry">
            <mxPoint x="540" y="1200" as="sourcePoint" />
            <mxPoint x="534" y="1290" as="targetPoint" />
          </mxGeometry>
        </mxCell>
        <mxCell id="gjD_-75JLr6LIN9-Wh-N-103" value="" style="endArrow=none;html=1;rounded=0;fontSize=14;" parent="WIyWlLk6GJQsqaUBKTNV-1" edge="1">
          <mxGeometry width="50" height="50" relative="1" as="geometry">
            <mxPoint x="350" y="1390" as="sourcePoint" />
            <mxPoint x="540" y="1390" as="targetPoint" />
            <Array as="points" />
          </mxGeometry>
        </mxCell>
        <mxCell id="gjD_-75JLr6LIN9-Wh-N-104" value="" style="endArrow=classic;html=1;rounded=0;fontSize=14;exitX=0.5;exitY=1;exitDx=0;exitDy=0;" parent="WIyWlLk6GJQsqaUBKTNV-1" source="gjD_-75JLr6LIN9-Wh-N-88" edge="1">
          <mxGeometry width="50" height="50" relative="1" as="geometry">
            <mxPoint x="560" y="1230" as="sourcePoint" />
            <mxPoint x="355" y="1340" as="targetPoint" />
          </mxGeometry>
        </mxCell>
      </root>
    </mxGraphModel>
  </diagram>
  <diagram id="Q97-YZjc1qkE5XeFl5iF" name="Memory management">
    <mxGraphModel dx="900" dy="529" grid="1" gridSize="10" guides="1" tooltips="1" connect="1" arrows="1" fold="1" page="1" pageScale="1" pageWidth="827" pageHeight="1169" math="0" shadow="0">
      <root>
        <mxCell id="0" />
        <mxCell id="1" parent="0" />
        <mxCell id="xzF2-169_sO8-WdLVfYL-7" value="" style="edgeStyle=orthogonalEdgeStyle;rounded=0;orthogonalLoop=1;jettySize=auto;html=1;" parent="1" source="xzF2-169_sO8-WdLVfYL-1" target="xzF2-169_sO8-WdLVfYL-6" edge="1">
          <mxGeometry relative="1" as="geometry" />
        </mxCell>
        <mxCell id="xzF2-169_sO8-WdLVfYL-1" value="Get first &amp;amp; last&lt;br&gt;physical address" style="rounded=1;whiteSpace=wrap;html=1;" parent="1" vertex="1">
          <mxGeometry x="120" y="210" width="100" height="50" as="geometry" />
        </mxCell>
        <mxCell id="xzF2-169_sO8-WdLVfYL-3" style="edgeStyle=orthogonalEdgeStyle;rounded=0;orthogonalLoop=1;jettySize=auto;html=1;exitX=0.5;exitY=1;exitDx=0;exitDy=0;entryX=0.5;entryY=0;entryDx=0;entryDy=0;" parent="1" source="xzF2-169_sO8-WdLVfYL-2" target="xzF2-169_sO8-WdLVfYL-1" edge="1">
          <mxGeometry relative="1" as="geometry">
            <mxPoint x="175" y="210" as="targetPoint" />
            <mxPoint x="200" y="190" as="sourcePoint" />
          </mxGeometry>
        </mxCell>
        <mxCell id="xzF2-169_sO8-WdLVfYL-2" value="START" style="ellipse;whiteSpace=wrap;html=1;" parent="1" vertex="1">
          <mxGeometry x="125" y="130" width="90" height="50" as="geometry" />
        </mxCell>
        <mxCell id="xzF2-169_sO8-WdLVfYL-9" value="" style="edgeStyle=orthogonalEdgeStyle;rounded=0;orthogonalLoop=1;jettySize=auto;html=1;" parent="1" source="xzF2-169_sO8-WdLVfYL-6" target="xzF2-169_sO8-WdLVfYL-8" edge="1">
          <mxGeometry relative="1" as="geometry" />
        </mxCell>
        <mxCell id="xzF2-169_sO8-WdLVfYL-6" value="Compute number of available frames" style="rounded=1;whiteSpace=wrap;html=1;" parent="1" vertex="1">
          <mxGeometry x="250" y="210" width="120" height="50" as="geometry" />
        </mxCell>
        <mxCell id="xzF2-169_sO8-WdLVfYL-11" value="" style="edgeStyle=orthogonalEdgeStyle;rounded=0;orthogonalLoop=1;jettySize=auto;html=1;" parent="1" source="xzF2-169_sO8-WdLVfYL-8" target="xzF2-169_sO8-WdLVfYL-10" edge="1">
          <mxGeometry relative="1" as="geometry" />
        </mxCell>
        <mxCell id="xzF2-169_sO8-WdLVfYL-8" value="Allocate space for memory management structures" style="rounded=1;whiteSpace=wrap;html=1;" parent="1" vertex="1">
          <mxGeometry x="400" y="205" width="130" height="60" as="geometry" />
        </mxCell>
        <mxCell id="xzF2-169_sO8-WdLVfYL-14" value="" style="edgeStyle=orthogonalEdgeStyle;rounded=0;orthogonalLoop=1;jettySize=auto;html=1;" parent="1" source="xzF2-169_sO8-WdLVfYL-10" target="xzF2-169_sO8-WdLVfYL-13" edge="1">
          <mxGeometry relative="1" as="geometry" />
        </mxCell>
        <mxCell id="xzF2-169_sO8-WdLVfYL-10" value="Initialize the allocated structures" style="rounded=1;whiteSpace=wrap;html=1;" parent="1" vertex="1">
          <mxGeometry x="560" y="210" width="110" height="50" as="geometry" />
        </mxCell>
        <mxCell id="xzF2-169_sO8-WdLVfYL-16" value="" style="edgeStyle=orthogonalEdgeStyle;rounded=0;orthogonalLoop=1;jettySize=auto;html=1;" parent="1" source="xzF2-169_sO8-WdLVfYL-13" target="xzF2-169_sO8-WdLVfYL-15" edge="1">
          <mxGeometry relative="1" as="geometry" />
        </mxCell>
        <mxCell id="xzF2-169_sO8-WdLVfYL-13" value="Set first page as allocated" style="rounded=1;whiteSpace=wrap;html=1;" parent="1" vertex="1">
          <mxGeometry x="700" y="210" width="100" height="50" as="geometry" />
        </mxCell>
        <mxCell id="xzF2-169_sO8-WdLVfYL-19" value="" style="edgeStyle=orthogonalEdgeStyle;rounded=0;orthogonalLoop=1;jettySize=auto;html=1;" parent="1" source="xzF2-169_sO8-WdLVfYL-15" target="xzF2-169_sO8-WdLVfYL-18" edge="1">
          <mxGeometry relative="1" as="geometry" />
        </mxCell>
        <mxCell id="xzF2-169_sO8-WdLVfYL-15" value="set ram_initialized boolean to true" style="rounded=1;whiteSpace=wrap;html=1;" parent="1" vertex="1">
          <mxGeometry x="830" y="210" width="110" height="50" as="geometry" />
        </mxCell>
        <mxCell id="xzF2-169_sO8-WdLVfYL-18" value="STOP" style="ellipse;whiteSpace=wrap;html=1;" parent="1" vertex="1">
          <mxGeometry x="840" y="290" width="90" height="50" as="geometry" />
        </mxCell>
        <mxCell id="xzF2-169_sO8-WdLVfYL-21" value="&lt;font style=&quot;font-size: 31px;&quot;&gt;INITIALIZATION&lt;/font&gt;" style="text;html=1;strokeColor=none;fillColor=none;align=center;verticalAlign=middle;whiteSpace=wrap;rounded=0;" parent="1" vertex="1">
          <mxGeometry x="120" y="70" width="260" height="50" as="geometry" />
        </mxCell>
        <mxCell id="xzF2-169_sO8-WdLVfYL-22" value="&lt;font style=&quot;font-size: 31px;&quot;&gt;ALLOCATION&lt;/font&gt;" style="text;html=1;strokeColor=none;fillColor=none;align=center;verticalAlign=middle;whiteSpace=wrap;rounded=0;" parent="1" vertex="1">
          <mxGeometry x="120" y="370" width="230" height="50" as="geometry" />
        </mxCell>
        <mxCell id="xRZFoAtRTlZ39J5naziJ-2" value="" style="edgeStyle=orthogonalEdgeStyle;rounded=0;orthogonalLoop=1;jettySize=auto;html=1;" parent="1" source="xzF2-169_sO8-WdLVfYL-23" target="xRZFoAtRTlZ39J5naziJ-1" edge="1">
          <mxGeometry relative="1" as="geometry" />
        </mxCell>
        <mxCell id="xzF2-169_sO8-WdLVfYL-23" value="START" style="ellipse;whiteSpace=wrap;html=1;" parent="1" vertex="1">
          <mxGeometry x="125" y="430" width="90" height="50" as="geometry" />
        </mxCell>
        <mxCell id="xRZFoAtRTlZ39J5naziJ-4" style="edgeStyle=orthogonalEdgeStyle;rounded=0;orthogonalLoop=1;jettySize=auto;html=1;entryX=0;entryY=0.5;entryDx=0;entryDy=0;" parent="1" source="xRZFoAtRTlZ39J5naziJ-1" target="xRZFoAtRTlZ39J5naziJ-3" edge="1">
          <mxGeometry relative="1" as="geometry" />
        </mxCell>
        <mxCell id="xRZFoAtRTlZ39J5naziJ-1" value="Convert requested pages to bytes" style="rounded=1;whiteSpace=wrap;html=1;" parent="1" vertex="1">
          <mxGeometry x="115" y="510" width="110" height="50" as="geometry" />
        </mxCell>
        <mxCell id="xRZFoAtRTlZ39J5naziJ-6" style="edgeStyle=orthogonalEdgeStyle;rounded=0;orthogonalLoop=1;jettySize=auto;html=1;entryX=0.5;entryY=0;entryDx=0;entryDy=0;" parent="1" source="xRZFoAtRTlZ39J5naziJ-3" target="xRZFoAtRTlZ39J5naziJ-5" edge="1">
          <mxGeometry relative="1" as="geometry" />
        </mxCell>
        <mxCell id="xRZFoAtRTlZ39J5naziJ-11" value="" style="edgeStyle=orthogonalEdgeStyle;rounded=0;orthogonalLoop=1;jettySize=auto;html=1;" parent="1" source="xRZFoAtRTlZ39J5naziJ-3" target="xRZFoAtRTlZ39J5naziJ-10" edge="1">
          <mxGeometry relative="1" as="geometry" />
        </mxCell>
        <mxCell id="xRZFoAtRTlZ39J5naziJ-3" value="Requested size &lt;br&gt;higher than &lt;br&gt;available space?" style="rhombus;whiteSpace=wrap;html=1;" parent="1" vertex="1">
          <mxGeometry x="378" y="477.5" width="140" height="115" as="geometry" />
        </mxCell>
        <mxCell id="xRZFoAtRTlZ39J5naziJ-60" style="edgeStyle=orthogonalEdgeStyle;rounded=0;orthogonalLoop=1;jettySize=auto;html=1;entryX=0.5;entryY=0;entryDx=0;entryDy=0;" parent="1" source="xRZFoAtRTlZ39J5naziJ-5" target="xRZFoAtRTlZ39J5naziJ-50" edge="1">
          <mxGeometry relative="1" as="geometry" />
        </mxCell>
        <mxCell id="xRZFoAtRTlZ39J5naziJ-5" value="Return 0" style="rounded=1;whiteSpace=wrap;html=1;" parent="1" vertex="1">
          <mxGeometry x="870" y="565" width="100" height="50" as="geometry" />
        </mxCell>
        <mxCell id="xRZFoAtRTlZ39J5naziJ-7" value="Y" style="text;html=1;strokeColor=none;fillColor=none;align=center;verticalAlign=middle;whiteSpace=wrap;rounded=0;" parent="1" vertex="1">
          <mxGeometry x="495" y="510" width="60" height="30" as="geometry" />
        </mxCell>
        <mxCell id="xRZFoAtRTlZ39J5naziJ-19" style="edgeStyle=orthogonalEdgeStyle;rounded=0;orthogonalLoop=1;jettySize=auto;html=1;entryX=0;entryY=0.5;entryDx=0;entryDy=0;" parent="1" source="xRZFoAtRTlZ39J5naziJ-10" target="xRZFoAtRTlZ39J5naziJ-13" edge="1">
          <mxGeometry relative="1" as="geometry" />
        </mxCell>
        <mxCell id="xRZFoAtRTlZ39J5naziJ-23" style="edgeStyle=orthogonalEdgeStyle;rounded=0;orthogonalLoop=1;jettySize=auto;html=1;entryX=1;entryY=0.5;entryDx=0;entryDy=0;" parent="1" source="xRZFoAtRTlZ39J5naziJ-10" target="xRZFoAtRTlZ39J5naziJ-22" edge="1">
          <mxGeometry relative="1" as="geometry" />
        </mxCell>
        <mxCell id="xRZFoAtRTlZ39J5naziJ-10" value="Is memory system &lt;br&gt;initialized?" style="rhombus;whiteSpace=wrap;html=1;" parent="1" vertex="1">
          <mxGeometry x="378" y="640" width="140" height="80" as="geometry" />
        </mxCell>
        <mxCell id="xRZFoAtRTlZ39J5naziJ-12" value="N" style="text;html=1;strokeColor=none;fillColor=none;align=center;verticalAlign=middle;whiteSpace=wrap;rounded=0;" parent="1" vertex="1">
          <mxGeometry x="410" y="585" width="60" height="30" as="geometry" />
        </mxCell>
        <mxCell id="xRZFoAtRTlZ39J5naziJ-17" style="edgeStyle=orthogonalEdgeStyle;rounded=0;orthogonalLoop=1;jettySize=auto;html=1;entryX=0.5;entryY=0;entryDx=0;entryDy=0;" parent="1" source="xRZFoAtRTlZ39J5naziJ-13" target="xRZFoAtRTlZ39J5naziJ-14" edge="1">
          <mxGeometry relative="1" as="geometry" />
        </mxCell>
        <mxCell id="xRZFoAtRTlZ39J5naziJ-13" value="Store firstpaddr to a TMP variable" style="rounded=1;whiteSpace=wrap;html=1;" parent="1" vertex="1">
          <mxGeometry x="720" y="650" width="120" height="60" as="geometry" />
        </mxCell>
        <mxCell id="xRZFoAtRTlZ39J5naziJ-18" style="edgeStyle=orthogonalEdgeStyle;rounded=0;orthogonalLoop=1;jettySize=auto;html=1;entryX=0.5;entryY=0;entryDx=0;entryDy=0;" parent="1" source="xRZFoAtRTlZ39J5naziJ-14" target="xRZFoAtRTlZ39J5naziJ-15" edge="1">
          <mxGeometry relative="1" as="geometry" />
        </mxCell>
        <mxCell id="xRZFoAtRTlZ39J5naziJ-14" value="Update firstpaddr" style="rounded=1;whiteSpace=wrap;html=1;" parent="1" vertex="1">
          <mxGeometry x="720" y="740" width="120" height="40" as="geometry" />
        </mxCell>
        <mxCell id="xRZFoAtRTlZ39J5naziJ-57" style="edgeStyle=orthogonalEdgeStyle;rounded=0;orthogonalLoop=1;jettySize=auto;html=1;endArrow=none;endFill=0;" parent="1" source="xRZFoAtRTlZ39J5naziJ-15" edge="1">
          <mxGeometry relative="1" as="geometry">
            <mxPoint x="780" y="1080" as="targetPoint" />
            <Array as="points">
              <mxPoint x="780" y="1080" />
            </Array>
          </mxGeometry>
        </mxCell>
        <mxCell id="xRZFoAtRTlZ39J5naziJ-15" value="Return TMP variable" style="rounded=1;whiteSpace=wrap;html=1;" parent="1" vertex="1">
          <mxGeometry x="720" y="810" width="120" height="40" as="geometry" />
        </mxCell>
        <mxCell id="xRZFoAtRTlZ39J5naziJ-20" value="N" style="text;html=1;strokeColor=none;fillColor=none;align=center;verticalAlign=middle;whiteSpace=wrap;rounded=0;" parent="1" vertex="1">
          <mxGeometry x="495" y="655" width="60" height="30" as="geometry" />
        </mxCell>
        <mxCell id="xRZFoAtRTlZ39J5naziJ-21" value="Y" style="text;html=1;strokeColor=none;fillColor=none;align=center;verticalAlign=middle;whiteSpace=wrap;rounded=0;" parent="1" vertex="1">
          <mxGeometry x="340" y="655" width="60" height="30" as="geometry" />
        </mxCell>
        <mxCell id="xRZFoAtRTlZ39J5naziJ-25" style="edgeStyle=orthogonalEdgeStyle;rounded=0;orthogonalLoop=1;jettySize=auto;html=1;entryX=0.5;entryY=0;entryDx=0;entryDy=0;" parent="1" source="xRZFoAtRTlZ39J5naziJ-22" target="xRZFoAtRTlZ39J5naziJ-24" edge="1">
          <mxGeometry relative="1" as="geometry" />
        </mxCell>
        <mxCell id="xRZFoAtRTlZ39J5naziJ-22" value="Initialize index, total available frames and free contiguous frames" style="rounded=1;whiteSpace=wrap;html=1;" parent="1" vertex="1">
          <mxGeometry x="105" y="650" width="130" height="60" as="geometry" />
        </mxCell>
        <mxCell id="xRZFoAtRTlZ39J5naziJ-29" style="edgeStyle=orthogonalEdgeStyle;rounded=0;orthogonalLoop=1;jettySize=auto;html=1;entryX=0;entryY=0.5;entryDx=0;entryDy=0;" parent="1" source="xRZFoAtRTlZ39J5naziJ-24" target="xRZFoAtRTlZ39J5naziJ-26" edge="1">
          <mxGeometry relative="1" as="geometry" />
        </mxCell>
        <mxCell id="xRZFoAtRTlZ39J5naziJ-45" style="edgeStyle=orthogonalEdgeStyle;rounded=0;orthogonalLoop=1;jettySize=auto;html=1;entryX=0;entryY=0.5;entryDx=0;entryDy=0;" parent="1" source="xRZFoAtRTlZ39J5naziJ-24" target="xRZFoAtRTlZ39J5naziJ-44" edge="1">
          <mxGeometry relative="1" as="geometry" />
        </mxCell>
        <mxCell id="xRZFoAtRTlZ39J5naziJ-24" value="Is index lower &lt;br&gt;than total frames?" style="rhombus;whiteSpace=wrap;html=1;" parent="1" vertex="1">
          <mxGeometry x="100" y="790" width="140" height="80" as="geometry" />
        </mxCell>
        <mxCell id="xRZFoAtRTlZ39J5naziJ-33" style="edgeStyle=orthogonalEdgeStyle;rounded=0;orthogonalLoop=1;jettySize=auto;html=1;entryX=0;entryY=0.5;entryDx=0;entryDy=0;" parent="1" source="xRZFoAtRTlZ39J5naziJ-26" target="xRZFoAtRTlZ39J5naziJ-30" edge="1">
          <mxGeometry relative="1" as="geometry" />
        </mxCell>
        <mxCell id="xRZFoAtRTlZ39J5naziJ-38" style="edgeStyle=orthogonalEdgeStyle;rounded=0;orthogonalLoop=1;jettySize=auto;html=1;entryX=0.5;entryY=0;entryDx=0;entryDy=0;" parent="1" source="xRZFoAtRTlZ39J5naziJ-26" target="xRZFoAtRTlZ39J5naziJ-37" edge="1">
          <mxGeometry relative="1" as="geometry" />
        </mxCell>
        <mxCell id="xRZFoAtRTlZ39J5naziJ-26" value="Is current frame &lt;br&gt;allocated?" style="rhombus;whiteSpace=wrap;html=1;" parent="1" vertex="1">
          <mxGeometry x="380" y="787.5" width="136" height="85" as="geometry" />
        </mxCell>
        <mxCell id="xRZFoAtRTlZ39J5naziJ-27" value="Y" style="text;html=1;strokeColor=none;fillColor=none;align=center;verticalAlign=middle;whiteSpace=wrap;rounded=0;" parent="1" vertex="1">
          <mxGeometry x="215" y="805" width="60" height="30" as="geometry" />
        </mxCell>
        <mxCell id="xRZFoAtRTlZ39J5naziJ-34" style="edgeStyle=orthogonalEdgeStyle;rounded=0;orthogonalLoop=1;jettySize=auto;html=1;entryX=0.5;entryY=0;entryDx=0;entryDy=0;" parent="1" source="xRZFoAtRTlZ39J5naziJ-30" target="xRZFoAtRTlZ39J5naziJ-32" edge="1">
          <mxGeometry relative="1" as="geometry" />
        </mxCell>
        <mxCell id="xRZFoAtRTlZ39J5naziJ-30" value="Reset free&lt;br&gt;contiguous frames" style="rounded=1;whiteSpace=wrap;html=1;" parent="1" vertex="1">
          <mxGeometry x="550" y="805" width="110" height="50" as="geometry" />
        </mxCell>
        <mxCell id="xRZFoAtRTlZ39J5naziJ-35" style="edgeStyle=orthogonalEdgeStyle;rounded=0;orthogonalLoop=1;jettySize=auto;html=1;" parent="1" source="xRZFoAtRTlZ39J5naziJ-32" edge="1">
          <mxGeometry relative="1" as="geometry">
            <mxPoint x="170" y="760" as="targetPoint" />
            <Array as="points">
              <mxPoint x="690" y="915" />
              <mxPoint x="690" y="760" />
              <mxPoint x="170" y="760" />
            </Array>
          </mxGeometry>
        </mxCell>
        <mxCell id="xRZFoAtRTlZ39J5naziJ-32" value="Increment index" style="rounded=1;whiteSpace=wrap;html=1;" parent="1" vertex="1">
          <mxGeometry x="550" y="890" width="110" height="50" as="geometry" />
        </mxCell>
        <mxCell id="xRZFoAtRTlZ39J5naziJ-40" style="edgeStyle=orthogonalEdgeStyle;rounded=0;orthogonalLoop=1;jettySize=auto;html=1;entryX=0.5;entryY=0;entryDx=0;entryDy=0;" parent="1" source="xRZFoAtRTlZ39J5naziJ-37" target="xRZFoAtRTlZ39J5naziJ-39" edge="1">
          <mxGeometry relative="1" as="geometry" />
        </mxCell>
        <mxCell id="xRZFoAtRTlZ39J5naziJ-37" value="Increment free&lt;br&gt;contiguous frames" style="rounded=1;whiteSpace=wrap;html=1;" parent="1" vertex="1">
          <mxGeometry x="388" y="900" width="120" height="60" as="geometry" />
        </mxCell>
        <mxCell id="xRZFoAtRTlZ39J5naziJ-41" style="edgeStyle=orthogonalEdgeStyle;rounded=0;orthogonalLoop=1;jettySize=auto;html=1;entryX=0.5;entryY=1;entryDx=0;entryDy=0;" parent="1" source="xRZFoAtRTlZ39J5naziJ-39" target="xRZFoAtRTlZ39J5naziJ-32" edge="1">
          <mxGeometry relative="1" as="geometry" />
        </mxCell>
        <mxCell id="xRZFoAtRTlZ39J5naziJ-43" style="edgeStyle=orthogonalEdgeStyle;rounded=0;orthogonalLoop=1;jettySize=auto;html=1;entryX=1;entryY=0.5;entryDx=0;entryDy=0;" parent="1" source="xRZFoAtRTlZ39J5naziJ-39" target="xRZFoAtRTlZ39J5naziJ-42" edge="1">
          <mxGeometry relative="1" as="geometry" />
        </mxCell>
        <mxCell id="xRZFoAtRTlZ39J5naziJ-39" value="free contiguous &lt;br&gt;frames equal to&lt;br&gt;requested frames?" style="rhombus;whiteSpace=wrap;html=1;" parent="1" vertex="1">
          <mxGeometry x="368" y="990" width="160" height="100" as="geometry" />
        </mxCell>
        <mxCell id="xRZFoAtRTlZ39J5naziJ-46" style="edgeStyle=orthogonalEdgeStyle;rounded=0;orthogonalLoop=1;jettySize=auto;html=1;" parent="1" source="xRZFoAtRTlZ39J5naziJ-42" edge="1">
          <mxGeometry relative="1" as="geometry">
            <mxPoint x="170" y="1040" as="targetPoint" />
          </mxGeometry>
        </mxCell>
        <mxCell id="xRZFoAtRTlZ39J5naziJ-42" value="set index to first contiguous frame" style="rounded=1;whiteSpace=wrap;html=1;" parent="1" vertex="1">
          <mxGeometry x="210" y="1010" width="120" height="60" as="geometry" />
        </mxCell>
        <mxCell id="xRZFoAtRTlZ39J5naziJ-48" style="edgeStyle=orthogonalEdgeStyle;rounded=0;orthogonalLoop=1;jettySize=auto;html=1;entryX=0;entryY=0.5;entryDx=0;entryDy=0;" parent="1" source="xRZFoAtRTlZ39J5naziJ-44" target="xRZFoAtRTlZ39J5naziJ-47" edge="1">
          <mxGeometry relative="1" as="geometry" />
        </mxCell>
        <mxCell id="xRZFoAtRTlZ39J5naziJ-44" value="Set contiguous frames as allocated" style="rounded=1;whiteSpace=wrap;html=1;" parent="1" vertex="1">
          <mxGeometry x="210" y="1130" width="120" height="60" as="geometry" />
        </mxCell>
        <mxCell id="xRZFoAtRTlZ39J5naziJ-56" style="edgeStyle=orthogonalEdgeStyle;rounded=0;orthogonalLoop=1;jettySize=auto;html=1;entryX=0;entryY=0.5;entryDx=0;entryDy=0;" parent="1" source="xRZFoAtRTlZ39J5naziJ-47" target="xRZFoAtRTlZ39J5naziJ-49" edge="1">
          <mxGeometry relative="1" as="geometry" />
        </mxCell>
        <mxCell id="xRZFoAtRTlZ39J5naziJ-47" value="Update allocated&lt;br&gt;size" style="rounded=1;whiteSpace=wrap;html=1;" parent="1" vertex="1">
          <mxGeometry x="388" y="1130" width="120" height="60" as="geometry" />
        </mxCell>
        <mxCell id="xRZFoAtRTlZ39J5naziJ-58" style="edgeStyle=orthogonalEdgeStyle;rounded=0;orthogonalLoop=1;jettySize=auto;html=1;endArrow=none;endFill=0;" parent="1" source="xRZFoAtRTlZ39J5naziJ-49" edge="1">
          <mxGeometry relative="1" as="geometry">
            <mxPoint x="780" y="1080" as="targetPoint" />
          </mxGeometry>
        </mxCell>
        <mxCell id="xRZFoAtRTlZ39J5naziJ-49" value="Compute address&lt;br&gt;and return it" style="rounded=1;whiteSpace=wrap;html=1;" parent="1" vertex="1">
          <mxGeometry x="570" y="1130" width="120" height="60" as="geometry" />
        </mxCell>
        <mxCell id="xRZFoAtRTlZ39J5naziJ-50" value="STOP" style="ellipse;whiteSpace=wrap;html=1;" parent="1" vertex="1">
          <mxGeometry x="875" y="1135" width="90" height="50" as="geometry" />
        </mxCell>
        <mxCell id="xRZFoAtRTlZ39J5naziJ-51" value="N" style="text;html=1;strokeColor=none;fillColor=none;align=center;verticalAlign=middle;whiteSpace=wrap;rounded=0;" parent="1" vertex="1">
          <mxGeometry x="150" y="865" width="60" height="30" as="geometry" />
        </mxCell>
        <mxCell id="xRZFoAtRTlZ39J5naziJ-52" value="Y" style="text;html=1;strokeColor=none;fillColor=none;align=center;verticalAlign=middle;whiteSpace=wrap;rounded=0;" parent="1" vertex="1">
          <mxGeometry x="495" y="805" width="60" height="30" as="geometry" />
        </mxCell>
        <mxCell id="xRZFoAtRTlZ39J5naziJ-53" value="N" style="text;html=1;strokeColor=none;fillColor=none;align=center;verticalAlign=middle;whiteSpace=wrap;rounded=0;" parent="1" vertex="1">
          <mxGeometry x="430" y="865" width="60" height="30" as="geometry" />
        </mxCell>
        <mxCell id="xRZFoAtRTlZ39J5naziJ-54" value="N" style="text;html=1;strokeColor=none;fillColor=none;align=center;verticalAlign=middle;whiteSpace=wrap;rounded=0;" parent="1" vertex="1">
          <mxGeometry x="508" y="1015" width="60" height="30" as="geometry" />
        </mxCell>
        <mxCell id="xRZFoAtRTlZ39J5naziJ-55" value="Y" style="text;html=1;strokeColor=none;fillColor=none;align=center;verticalAlign=middle;whiteSpace=wrap;rounded=0;" parent="1" vertex="1">
          <mxGeometry x="330" y="1015" width="60" height="30" as="geometry" />
        </mxCell>
        <mxCell id="xRZFoAtRTlZ39J5naziJ-59" value="" style="endArrow=classic;html=1;rounded=0;" parent="1" edge="1">
          <mxGeometry width="50" height="50" relative="1" as="geometry">
            <mxPoint x="780" y="1080" as="sourcePoint" />
            <mxPoint x="920" y="1080" as="targetPoint" />
          </mxGeometry>
        </mxCell>
        <mxCell id="xRZFoAtRTlZ39J5naziJ-61" value="&lt;font style=&quot;font-size: 31px;&quot;&gt;DE-ALLOCATION&lt;/font&gt;" style="text;html=1;strokeColor=none;fillColor=none;align=center;verticalAlign=middle;whiteSpace=wrap;rounded=0;" parent="1" vertex="1">
          <mxGeometry x="125" y="1280" width="265" height="50" as="geometry" />
        </mxCell>
        <mxCell id="xRZFoAtRTlZ39J5naziJ-77" value="" style="edgeStyle=orthogonalEdgeStyle;rounded=0;orthogonalLoop=1;jettySize=auto;html=1;endArrow=classic;endFill=1;" parent="1" source="xRZFoAtRTlZ39J5naziJ-62" target="xRZFoAtRTlZ39J5naziJ-63" edge="1">
          <mxGeometry relative="1" as="geometry">
            <Array as="points">
              <mxPoint x="175" y="1400" />
              <mxPoint x="175" y="1400" />
            </Array>
          </mxGeometry>
        </mxCell>
        <mxCell id="xRZFoAtRTlZ39J5naziJ-62" value="START" style="ellipse;whiteSpace=wrap;html=1;" parent="1" vertex="1">
          <mxGeometry x="130" y="1340" width="90" height="50" as="geometry" />
        </mxCell>
        <mxCell id="xRZFoAtRTlZ39J5naziJ-78" style="edgeStyle=orthogonalEdgeStyle;rounded=0;orthogonalLoop=1;jettySize=auto;html=1;entryX=0;entryY=0.5;entryDx=0;entryDy=0;endArrow=classic;endFill=1;" parent="1" source="xRZFoAtRTlZ39J5naziJ-63" target="xRZFoAtRTlZ39J5naziJ-64" edge="1">
          <mxGeometry relative="1" as="geometry" />
        </mxCell>
        <mxCell id="xRZFoAtRTlZ39J5naziJ-63" value="Read address to&lt;br&gt;be de-allocated" style="rounded=1;whiteSpace=wrap;html=1;" parent="1" vertex="1">
          <mxGeometry x="115" y="1420" width="120" height="60" as="geometry" />
        </mxCell>
        <mxCell id="xRZFoAtRTlZ39J5naziJ-79" style="edgeStyle=orthogonalEdgeStyle;rounded=0;orthogonalLoop=1;jettySize=auto;html=1;entryX=0;entryY=0.5;entryDx=0;entryDy=0;endArrow=classic;endFill=1;" parent="1" source="xRZFoAtRTlZ39J5naziJ-64" target="xRZFoAtRTlZ39J5naziJ-65" edge="1">
          <mxGeometry relative="1" as="geometry" />
        </mxCell>
        <mxCell id="xRZFoAtRTlZ39J5naziJ-64" value="Compute entry to access frame alloc" style="rounded=1;whiteSpace=wrap;html=1;" parent="1" vertex="1">
          <mxGeometry x="280" y="1420" width="120" height="60" as="geometry" />
        </mxCell>
        <mxCell id="xRZFoAtRTlZ39J5naziJ-80" style="edgeStyle=orthogonalEdgeStyle;rounded=0;orthogonalLoop=1;jettySize=auto;html=1;entryX=0;entryY=0.5;entryDx=0;entryDy=0;endArrow=classic;endFill=1;" parent="1" source="xRZFoAtRTlZ39J5naziJ-65" target="xRZFoAtRTlZ39J5naziJ-66" edge="1">
          <mxGeometry relative="1" as="geometry" />
        </mxCell>
        <mxCell id="xRZFoAtRTlZ39J5naziJ-65" value="Compute number of frames to be freed" style="rounded=1;whiteSpace=wrap;html=1;" parent="1" vertex="1">
          <mxGeometry x="448" y="1420" width="120" height="60" as="geometry" />
        </mxCell>
        <mxCell id="xRZFoAtRTlZ39J5naziJ-81" style="edgeStyle=orthogonalEdgeStyle;rounded=0;orthogonalLoop=1;jettySize=auto;html=1;entryX=0;entryY=0.5;entryDx=0;entryDy=0;endArrow=classic;endFill=1;" parent="1" source="xRZFoAtRTlZ39J5naziJ-66" target="xRZFoAtRTlZ39J5naziJ-68" edge="1">
          <mxGeometry relative="1" as="geometry" />
        </mxCell>
        <mxCell id="xRZFoAtRTlZ39J5naziJ-66" value="Reset the requested frames" style="rounded=1;whiteSpace=wrap;html=1;" parent="1" vertex="1">
          <mxGeometry x="610" y="1420" width="120" height="60" as="geometry" />
        </mxCell>
        <mxCell id="xRZFoAtRTlZ39J5naziJ-82" style="edgeStyle=orthogonalEdgeStyle;rounded=0;orthogonalLoop=1;jettySize=auto;html=1;entryX=0.5;entryY=0;entryDx=0;entryDy=0;endArrow=classic;endFill=1;" parent="1" source="xRZFoAtRTlZ39J5naziJ-68" target="xRZFoAtRTlZ39J5naziJ-70" edge="1">
          <mxGeometry relative="1" as="geometry" />
        </mxCell>
        <mxCell id="xRZFoAtRTlZ39J5naziJ-68" value="Return number of frames freed" style="rounded=1;whiteSpace=wrap;html=1;" parent="1" vertex="1">
          <mxGeometry x="770" y="1420" width="120" height="60" as="geometry" />
        </mxCell>
        <mxCell id="xRZFoAtRTlZ39J5naziJ-70" value="STOP" style="ellipse;whiteSpace=wrap;html=1;" parent="1" vertex="1">
          <mxGeometry x="785" y="1520" width="90" height="50" as="geometry" />
        </mxCell>
      </root>
    </mxGraphModel>
  </diagram>
  <diagram id="KOmtplsviYaF40RiWVjA" name="Swap management">
    <mxGraphModel dx="954" dy="642" grid="1" gridSize="10" guides="1" tooltips="1" connect="1" arrows="1" fold="1" page="1" pageScale="1" pageWidth="827" pageHeight="1169" math="0" shadow="0">
      <root>
        <mxCell id="0" />
        <mxCell id="1" parent="0" />
        <mxCell id="RekkB1ZhoE0TcN0_NtqH-12" value="" style="edgeStyle=orthogonalEdgeStyle;rounded=0;orthogonalLoop=1;jettySize=auto;html=1;" edge="1" parent="1" source="FoNDX4J750ZbWGI9-W-a-2" target="RekkB1ZhoE0TcN0_NtqH-5">
          <mxGeometry relative="1" as="geometry" />
        </mxCell>
        <mxCell id="FoNDX4J750ZbWGI9-W-a-2" value="Start" style="ellipse;whiteSpace=wrap;html=1;" vertex="1" parent="1">
          <mxGeometry x="270" y="60" width="120" height="80" as="geometry" />
        </mxCell>
        <mxCell id="RekkB1ZhoE0TcN0_NtqH-3" value="" style="edgeStyle=orthogonalEdgeStyle;rounded=0;orthogonalLoop=1;jettySize=auto;html=1;" edge="1" parent="1" source="oBetRpmsWZOOfHRIUN1B-1" target="RekkB1ZhoE0TcN0_NtqH-2">
          <mxGeometry relative="1" as="geometry" />
        </mxCell>
        <mxCell id="oBetRpmsWZOOfHRIUN1B-1" value="Swap_alloc function calls bitmap_alloc() that returns the valid index " style="rounded=1;whiteSpace=wrap;html=1;" vertex="1" parent="1">
          <mxGeometry x="410" y="240" width="140" height="70" as="geometry" />
        </mxCell>
        <mxCell id="kyJo1lAD2jnLo_AlLMMR-1" value="&lt;font style=&quot;font-size: 31px;&quot;&gt;Allocation&lt;/font&gt;" style="text;html=1;strokeColor=none;fillColor=none;align=center;verticalAlign=middle;whiteSpace=wrap;rounded=0;strokeWidth=7;" vertex="1" parent="1">
          <mxGeometry x="70" y="40" width="60" height="30" as="geometry" />
        </mxCell>
        <mxCell id="RekkB1ZhoE0TcN0_NtqH-10" value="" style="edgeStyle=orthogonalEdgeStyle;rounded=0;orthogonalLoop=1;jettySize=auto;html=1;" edge="1" parent="1" source="RekkB1ZhoE0TcN0_NtqH-2" target="RekkB1ZhoE0TcN0_NtqH-4">
          <mxGeometry relative="1" as="geometry" />
        </mxCell>
        <mxCell id="RekkB1ZhoE0TcN0_NtqH-2" value="Store the virual address and valid index in the structure Swappage_Trace() " style="rounded=1;whiteSpace=wrap;html=1;" vertex="1" parent="1">
          <mxGeometry x="420" y="350" width="120" height="60" as="geometry" />
        </mxCell>
        <mxCell id="RekkB1ZhoE0TcN0_NtqH-9" style="edgeStyle=orthogonalEdgeStyle;rounded=0;orthogonalLoop=1;jettySize=auto;html=1;entryX=0.5;entryY=0;entryDx=0;entryDy=0;" edge="1" parent="1" source="RekkB1ZhoE0TcN0_NtqH-4" target="RekkB1ZhoE0TcN0_NtqH-8">
          <mxGeometry relative="1" as="geometry" />
        </mxCell>
        <mxCell id="RekkB1ZhoE0TcN0_NtqH-4" value="Decrement the available free pages number in SWAP_FILE" style="rounded=1;whiteSpace=wrap;html=1;" vertex="1" parent="1">
          <mxGeometry x="420" y="450" width="120" height="60" as="geometry" />
        </mxCell>
        <mxCell id="RekkB1ZhoE0TcN0_NtqH-6" style="edgeStyle=orthogonalEdgeStyle;rounded=0;orthogonalLoop=1;jettySize=auto;html=1;entryX=0.5;entryY=0;entryDx=0;entryDy=0;" edge="1" parent="1" source="RekkB1ZhoE0TcN0_NtqH-5" target="oBetRpmsWZOOfHRIUN1B-1">
          <mxGeometry relative="1" as="geometry" />
        </mxCell>
        <mxCell id="RekkB1ZhoE0TcN0_NtqH-11" style="edgeStyle=orthogonalEdgeStyle;rounded=0;orthogonalLoop=1;jettySize=auto;html=1;exitX=0;exitY=0.5;exitDx=0;exitDy=0;entryX=0.5;entryY=0;entryDx=0;entryDy=0;" edge="1" parent="1" source="RekkB1ZhoE0TcN0_NtqH-5" target="RekkB1ZhoE0TcN0_NtqH-8">
          <mxGeometry relative="1" as="geometry">
            <Array as="points">
              <mxPoint x="210" y="210" />
              <mxPoint x="210" y="480" />
              <mxPoint x="345" y="480" />
            </Array>
          </mxGeometry>
        </mxCell>
        <mxCell id="RekkB1ZhoE0TcN0_NtqH-5" value="&lt;div&gt;Are there &lt;br&gt;&lt;/div&gt;&lt;div&gt;available pages in SWAP_FILE?&lt;/div&gt;" style="rhombus;whiteSpace=wrap;html=1;" vertex="1" parent="1">
          <mxGeometry x="275" y="160" width="110" height="100" as="geometry" />
        </mxCell>
        <mxCell id="RekkB1ZhoE0TcN0_NtqH-8" value="STOP" style="ellipse;whiteSpace=wrap;html=1;" vertex="1" parent="1">
          <mxGeometry x="285" y="530" width="120" height="80" as="geometry" />
        </mxCell>
        <mxCell id="RekkB1ZhoE0TcN0_NtqH-13" value="Y" style="text;html=1;strokeColor=none;fillColor=none;align=center;verticalAlign=middle;whiteSpace=wrap;rounded=0;" vertex="1" parent="1">
          <mxGeometry x="380" y="180" width="60" height="30" as="geometry" />
        </mxCell>
        <mxCell id="plibsEMApriiU1Erh7Y2-1" value="N" style="text;html=1;strokeColor=none;fillColor=none;align=center;verticalAlign=middle;whiteSpace=wrap;rounded=0;" vertex="1" parent="1">
          <mxGeometry x="215" y="180" width="60" height="30" as="geometry" />
        </mxCell>
      </root>
    </mxGraphModel>
  </diagram>
</mxfile>
